<?xml version="1.0" encoding="utf-8"?>
<!-- Generator: Adobe Illustrator 16.0.0, SVG Export Plug-In . SVG Version: 6.00 Build 0)  -->
<!DOCTYPE svg PUBLIC "-//W3C//DTD SVG 1.1//EN" "http://www.w3.org/Graphics/SVG/1.1/DTD/svg11.dtd">
<svg version="1.1" id="Layer_1" xmlns="http://www.w3.org/2000/svg" xmlns:xlink="http://www.w3.org/1999/xlink" x="0px" y="0px"
	 width="167.169px" height="162.374px" viewBox="0 0 167.169 162.374" enable-background="new 0 0 167.169 162.374"
	 xml:space="preserve">
<g>
	<path d="M53.337,162.374c-13.75,0-28.477-10.949-32.727-24.026L1.918,80.707c-4.25-13.077,1.375-30.45,12.5-38.532L63.358,6.592
		c11.125-8.082,29.329-8.097,40.454-0.017l48.938,35.541c11.125,8.081,16.75,25.388,12.5,38.464l-18.692,57.769
		c-4.25,13.077-18.977,24.024-32.727,24.024H53.337z"/>
	<path fill="none" stroke="#000000" stroke-miterlimit="10" d="M53.337,161.874c-13.75,0-28.477-10.699-32.727-23.776L1.918,80.582
		c-4.25-13.077,1.375-30.388,12.5-38.469L63.358,6.561c11.125-8.082,29.329-8.082,40.454-0.001l48.938,35.548
		c11.125,8.081,16.75,25.392,12.5,38.468l-18.692,57.521c-4.25,13.077-18.977,23.776-32.727,23.776H53.337z"/>
</g>
</svg>
